<?xml version="1.0" encoding="UTF-8" standalone="no"?>
<!DOCTYPE svg PUBLIC "-//W3C//DTD SVG 1.1//EN" "http://www.w3.org/Graphics/SVG/1.1/DTD/svg11.dtd">
<svg width="100%" height="100%" viewBox="0 0 32 32" version="1.1" xmlns="http://www.w3.org/2000/svg" xmlns:xlink="http://www.w3.org/1999/xlink" xml:space="preserve" xmlns:serif="http://www.serif.com/" style="fill-rule:evenodd;clip-rule:evenodd;stroke-linejoin:round;stroke-miterlimit:2;">
    <g transform="matrix(0.20915,0,0,0.20915,1.70679,0.0763522)">
        <path d="M80.337,74.304L76.302,76.576C75.149,77.257 74.803,78.62 75.495,79.643L80.683,88.616C81.029,89.184 81.49,89.525 82.066,89.638C82.297,89.638 82.412,89.752 82.643,89.752C82.989,89.752 83.45,89.638 83.796,89.411L87.831,87.139C88.984,86.458 89.33,85.095 88.638,84.072L83.45,75.099C83.104,74.531 82.643,74.19 82.066,74.077C81.49,73.963 80.913,74.077 80.337,74.304Z" style="fill-rule:nonzero;"/>
    </g>
    <g transform="matrix(0.20915,0,0,0.20915,1.70679,0.0763522)">
        <path d="M60.046,52.04C60.276,52.04 60.392,52.153 60.622,52.153C60.968,52.153 61.429,52.04 61.775,51.813L65.81,49.541C66.963,48.859 67.309,47.496 66.617,46.474L61.429,37.5C61.083,36.933 60.622,36.592 60.046,36.478C59.469,36.365 58.777,36.365 58.316,36.705L54.281,38.977C53.128,39.659 52.782,41.022 53.474,42.044L58.662,51.018C58.893,51.472 59.469,51.813 60.046,52.04Z" style="fill-rule:nonzero;"/>
    </g>
    <g transform="matrix(0.20915,0,0,0.20915,1.70679,0.0763522)">
        <path d="M68.693,10.239C36.411,10.239 10.239,36.024 10.239,67.829C10.239,73.054 10.931,78.166 12.315,83.163C13.122,86.23 16.35,87.934 19.348,87.139C22.46,86.344 24.19,83.163 23.383,80.21C22.23,76.235 21.653,72.032 21.653,67.943C21.769,42.385 42.867,21.598 68.693,21.598C94.518,21.598 115.617,42.385 115.617,67.829C115.617,85.322 105.817,101.11 90.022,109.062C88.523,109.857 86.909,110.538 85.295,111.106C84.603,111.333 83.911,111.674 83.104,111.901C80.683,112.696 79.069,114.855 79.069,117.354C79.069,120.08 79.53,123.147 80.568,126.441L67.079,119.285C61.66,116.445 56.356,113.492 51.975,109.289C47.018,104.518 45.404,101.451 44.942,95.885C44.481,90.774 45.749,87.139 49.9,82.141C52.091,79.415 54.973,77.484 57.279,76.121C59.469,74.758 61.775,73.508 64.196,72.372C67.77,74.985 72.613,75.439 76.648,73.168C82.182,70.101 84.142,63.172 81.029,57.719C77.916,52.267 70.883,50.336 65.349,53.403C62.006,55.221 59.93,58.515 59.585,62.036C56.702,63.399 53.82,64.989 51.168,66.693C48.17,68.51 44.251,71.237 40.907,75.326C36.757,80.437 32.606,87.025 33.413,97.135C34.105,105.54 36.872,110.993 43.789,117.694C49.324,123.033 55.319,126.441 61.66,129.735L83.335,140.98C84.488,141.548 85.871,141.889 87.139,141.889C89.215,141.889 91.175,141.094 92.673,139.731C95.21,137.345 95.902,133.71 94.403,130.643C92.789,127.236 91.751,124.169 91.175,121.443C92.558,120.875 93.942,120.193 95.325,119.625C115.04,109.743 127.261,90.092 127.261,68.283C127.146,36.024 100.974,10.239 68.693,10.239Z" style="fill-rule:nonzero;"/>
    </g>
    <g transform="matrix(0.20915,0,0,0.20915,0,0)">
        <path d="M201.24,86.656C201.24,90.653 200.231,94.023 198.213,96.765C196.233,99.468 193.377,101.505 189.646,102.876C185.952,104.247 181.535,104.932 176.395,104.932C172.016,104.932 168.228,104.589 165.029,103.904C161.831,103.219 159.032,102.248 156.634,100.991L156.634,92.253C159.185,93.509 162.231,94.652 165.772,95.68C169.313,96.708 172.93,97.222 176.624,97.222C182.03,97.222 185.952,96.346 188.389,94.594C190.826,92.843 192.044,90.463 192.044,87.455C192.044,85.742 191.549,84.238 190.559,82.943C189.608,81.611 187.989,80.335 185.705,79.117C183.42,77.86 180.26,76.489 176.224,75.004C172.226,73.481 168.761,71.977 165.829,70.492C162.935,68.969 160.689,67.123 159.089,64.952C157.528,62.782 156.748,59.964 156.748,56.499C156.748,51.207 158.88,47.152 163.145,44.334C167.447,41.478 173.082,40.05 180.05,40.05C183.82,40.05 187.342,40.431 190.617,41.193C193.929,41.916 197.013,42.906 199.869,44.163L196.671,51.759C194.081,50.655 191.321,49.722 188.389,48.96C185.457,48.199 182.468,47.818 179.422,47.818C175.043,47.818 171.674,48.541 169.313,49.988C166.99,51.435 165.829,53.415 165.829,55.928C165.829,57.87 166.362,59.469 167.428,60.726C168.532,61.982 170.284,63.163 172.683,64.267C175.081,65.371 178.242,66.666 182.164,68.15C186.085,69.597 189.474,71.101 192.33,72.663C195.186,74.186 197.375,76.051 198.898,78.26C200.459,80.43 201.24,83.229 201.24,86.656Z" style="fill-rule:nonzero;"/>
    </g>
</svg>
